<?xml version="1.0" standalone="no"?>
<!DOCTYPE svg PUBLIC "-//W3C//DTD SVG 20010904//EN"
 "http://www.w3.org/TR/2001/REC-SVG-20010904/DTD/svg10.dtd">
<svg version="1.0" xmlns="http://www.w3.org/2000/svg"
 width="500.000000pt" height="500.000000pt" viewBox="0 0 500.000000 500.000000"
 preserveAspectRatio="xMidYMid meet">

<g transform="translate(0.000000,500.000000) scale(0.100000,-0.100000)"
fill="#000000" stroke="none">
<path d="M4378 4275 c-141 -38 -303 -156 -473 -344 -83 -92 -211 -267 -209
-287 1 -7 -1 -12 -5 -10 -19 12 -207 -356 -278 -544 -51 -134 -106 -336 -122
-447 -14 -93 -34 -420 -27 -447 2 -12 8 -52 12 -91 7 -71 12 -93 58 -224 15
-41 24 -76 22 -78 -8 -8 -56 64 -56 84 0 21 -29 53 -48 53 -7 0 -12 16 -12 42
0 56 -9 43 -12 -16 -1 -29 -7 -50 -15 -53 -14 -6 -96 43 -153 92 -33 28 -34
28 -11 2 14 -15 48 -43 78 -63 44 -31 52 -41 47 -60 -5 -17 2 -30 24 -51 32
-30 78 -113 63 -113 -5 0 -20 15 -32 32 -70 102 -195 192 -445 320 -217 112
-496 190 -779 218 -60 5 -132 13 -160 16 -80 9 -359 5 -464 -7 -279 -30 -514
-109 -672 -226 -67 -49 -89 -85 -89 -146 0 -45 15 -72 84 -152 14 -16 32 -38
39 -48 11 -16 16 -15 72 19 33 20 92 52 130 71 39 19 91 46 117 59 56 29 129
56 136 49 2 -2 -6 -9 -20 -15 -26 -12 -38 -56 -12 -46 8 3 14 -1 14 -10 0 -11
6 -13 20 -9 39 12 1 -40 -61 -84 -63 -45 -74 -49 -65 -26 5 13 2 14 -15 5 -15
-8 -24 -8 -33 -1 -8 6 -21 9 -30 5 -26 -10 -18 10 12 29 27 18 27 18 2 11 -14
-4 -36 -14 -50 -24 -39 -26 -60 -32 -60 -15 0 8 18 24 40 35 22 11 40 23 40
26 0 3 -3 3 -7 1 -5 -2 -52 -25 -105 -52 -54 -27 -98 -52 -98 -57 0 -4 15 -14
33 -22 18 -7 40 -25 50 -39 9 -14 26 -28 37 -32 11 -4 27 -19 35 -35 8 -15 26
-31 41 -34 15 -4 36 -18 46 -32 11 -13 27 -24 36 -24 8 0 30 -16 48 -35 23
-25 40 -35 62 -35 17 0 34 5 37 10 4 6 11 7 17 4 6 -4 0 -13 -15 -21 -31 -16
-27 -34 11 -54 15 -8 33 -22 40 -31 7 -10 18 -18 23 -18 6 0 31 -21 56 -48 24
-26 41 -41 37 -33 -5 10 -3 12 5 6 7 -4 22 2 37 16 29 28 32 12 3 -25 -11 -14
-26 -24 -32 -20 -7 3 -3 -2 7 -10 11 -9 25 -16 30 -16 50 0 106 -33 140 -82
l16 -22 27 25 28 24 -24 -28 c-30 -34 -21 -47 40 -53 76 -9 84 -12 132 -59 47
-47 87 -65 141 -65 17 0 46 -11 66 -25 33 -23 40 -24 66 -13 16 7 40 23 54 36
49 46 140 113 140 103 0 -5 -12 -20 -27 -33 -37 -31 -87 -98 -74 -98 6 0 25
13 43 28 18 16 53 36 78 45 25 10 90 54 145 98 122 99 172 136 295 220 115 78
148 94 106 50 -17 -17 -31 -41 -33 -53 -2 -12 -6 -24 -10 -27 -3 -3 -3 5 0 18
6 23 6 23 -23 -4 -16 -16 -27 -33 -23 -38 3 -6 1 -7 -5 -4 -9 6 -96 -86 -97
-102 -1 -12 -34 -66 -35 -56 0 6 -12 -12 -26 -40 -14 -27 -32 -54 -40 -58 -8
-4 -14 -15 -14 -23 0 -9 5 -12 12 -8 7 4 8 3 4 -5 -4 -6 -12 -9 -17 -6 -20 13
-63 -161 -54 -221 4 -26 0 -53 -11 -79 -12 -29 -15 -56 -10 -96 7 -73 14 -89
34 -82 14 4 15 3 2 -5 -22 -16 15 -51 63 -59 48 -7 82 -42 96 -100 9 -33 18
-46 39 -54 18 -7 28 -7 30 0 2 6 8 9 13 6 5 -3 22 4 39 16 26 20 32 21 55 9
15 -8 25 -22 25 -36 0 -13 5 -26 10 -29 6 -3 10 -16 10 -29 0 -14 10 -28 26
-36 23 -13 30 -12 74 13 26 15 60 27 75 27 30 0 102 -46 110 -72 3 -9 21 -22
39 -28 43 -14 107 10 136 50 30 42 69 52 119 29 41 -18 41 -18 68 5 32 28 37
76 21 224 -15 142 -14 186 6 402 18 186 17 344 -1 465 -6 40 -5 40 46 -35 82
-121 124 -160 172 -160 42 0 44 35 9 129 -37 102 -52 131 -107 209 -25 34 -42
62 -38 62 3 0 32 -21 63 -46 79 -65 222 -146 408 -234 105 -49 195 -100 258
-145 143 -104 196 -135 231 -135 40 0 55 16 55 58 0 45 46 92 89 92 38 0 106
58 114 97 3 15 -1 40 -9 55 -14 28 -18 78 -8 113 5 19 65 65 84 65 13 0 30 34
30 58 0 11 -16 37 -35 58 -19 22 -37 47 -41 57 -7 21 12 47 35 47 37 1 74 52
61 86 -5 12 -20 30 -33 41 -34 26 -49 82 -31 114 19 35 17 67 -7 106 -25 41
-109 97 -157 106 -19 4 -45 16 -59 27 -35 28 -176 71 -244 75 -31 2 -74 -1
-95 -5 -22 -5 -40 -6 -42 -2 -5 15 -159 -6 -275 -38 -65 -17 -121 -30 -123
-27 -8 7 300 149 446 205 80 30 163 67 186 82 22 15 65 38 95 52 71 33 119 99
117 162 -1 24 8 65 22 98 13 32 21 61 17 64 -6 7 -39 -4 -113 -37 -23 -10 -53
-20 -67 -21 -15 -2 -29 -7 -33 -11 -12 -12 -64 -8 -64 5 0 6 3 8 7 5 3 -4 12
-2 20 4 7 6 13 9 13 5 0 -4 12 0 28 7 15 8 52 20 82 26 117 26 123 30 115 65
-17 84 -17 94 4 134 26 52 26 71 -1 134 -21 49 -21 52 -5 113 9 35 17 66 17
69 0 4 -19 4 -42 1 l-43 -6 37 17 c33 14 37 19 32 43 -4 14 -11 30 -15 36 -5
5 -9 28 -9 51 0 24 -4 46 -10 49 -5 3 -7 19 -3 35 3 19 1 30 -6 30 -6 0 -10 6
-9 13 2 8 -7 11 -27 10 -28 -2 -29 -2 -8 9 26 12 39 64 27 100 -8 23 -13 79
-13 152 0 21 -6 45 -13 53 -7 9 -11 29 -9 45 1 16 -4 40 -13 53 -12 19 -13 30
-4 55 16 47 -2 59 -44 27 -18 -13 -46 -32 -63 -41 -42 -24 -100 -66 -89 -66 5
0 24 9 42 20 35 22 52 25 52 11 0 -5 -25 -24 -56 -41 -61 -36 -66 -50 -9 -25
45 18 55 14 21 -9 -15 -9 -23 -22 -20 -30 3 -8 -5 -21 -18 -30 -15 -11 -17
-16 -8 -16 11 -1 10 -5 -5 -16 -51 -41 -162 -67 -162 -39 0 8 3 12 7 10 4 -2
7 9 7 24 0 25 -4 29 -29 27 -33 -2 -35 2 -10 20 44 35 242 163 282 183 25 12
56 31 70 41 22 17 23 22 13 39 -7 12 -13 33 -13 49 0 15 -5 33 -12 40 -7 7
-19 31 -28 55 -11 31 -25 46 -50 58 -55 26 -72 28 -122 14z m-18 -230 c-63
-63 -73 -78 -64 -93 23 -36 86 -17 208 63 14 10 26 15 26 12 0 -3 -48 -35
-107 -73 -113 -71 -142 -91 -198 -137 -38 -32 -56 -21 -30 20 21 31 7 50 -24
34 -12 -7 -21 -8 -21 -3 0 9 58 65 171 164 126 112 142 117 39 13z m-138 -35
c-15 -21 -31 -39 -35 -40 -5 0 4 18 20 40 15 22 31 40 35 40 4 0 -5 -18 -20
-40z m-207 -106 c-21 -33 -10 -47 31 -39 20 3 34 2 34 -4 0 -5 -23 -47 -51
-93 -28 -46 -72 -122 -97 -170 -25 -48 -47 -86 -49 -85 -4 5 47 129 59 145 6
7 8 15 5 18 -3 3 -13 -8 -22 -25 -9 -18 -21 -29 -26 -25 -7 4 -9 0 -6 -12 4
-11 0 -30 -8 -44 -14 -25 -14 -25 -11 10 4 55 16 85 27 69 5 -8 9 -9 9 -4 0 6
-4 16 -9 23 -6 9 -19 -14 -44 -75 -49 -122 -88 -205 -94 -200 -2 3 27 79 66
169 39 90 71 169 71 176 0 15 63 139 99 197 23 36 26 38 29 17 2 -13 -4 -34
-13 -48z m470 -74 c3 -5 -1 -10 -10 -10 -9 0 -13 5 -10 10 3 6 8 10 10 10 2 0
7 -4 10 -10z m-599 -87 c-8 -15 -15 -25 -16 -21 0 12 23 58 27 54 3 -2 -2 -17
-11 -33z m574 -11 c0 -12 -51 -34 -59 -27 -7 8 28 35 46 35 7 0 13 -4 13 -8z
m30 -26 c0 -3 -4 -8 -10 -11 -5 -3 -10 -1 -10 4 0 6 5 11 10 11 6 0 10 -2 10
-4z m-235 -36 c3 -5 1 -10 -4 -10 -6 0 -11 5 -11 10 0 6 2 10 4 10 3 0 8 -4
11 -10z m175 0 c-20 -13 -33 -13 -25 0 3 6 14 10 23 10 15 0 15 -2 2 -10z
m-60 -35 c0 -8 -7 -15 -15 -15 -26 0 -18 20 13 29 1 1 2 -6 2 -14z m40 -21 c0
-16 -37 -49 -52 -46 -25 5 -22 14 10 34 29 18 42 21 42 12z m-624 -38 c-6 -18
-17 -40 -22 -47 -14 -18 -53 -118 -94 -239 -18 -52 -45 -115 -62 -140 l-30
-45 7 40 c12 68 34 125 118 298 77 157 109 209 83 133z m-86 -76 c-6 -12 -14
-19 -17 -16 -4 3 0 18 8 32 7 14 15 21 17 15 2 -5 -2 -20 -8 -31z m609 17 c-5
-43 0 -50 39 -44 20 3 45 8 56 13 15 6 17 4 11 -14 -4 -13 -2 -22 4 -22 25 0
7 -17 -42 -39 -28 -13 -68 -31 -87 -41 l-35 -16 -16 33 c-11 21 -13 33 -5 33
6 0 5 4 -3 9 -11 7 -11 9 0 13 8 3 11 8 8 12 -3 3 -22 -1 -42 -9 l-36 -15 21
35 c15 27 31 39 64 47 24 7 44 16 44 21 0 4 5 5 10 2 6 -4 10 -12 9 -18z m236
-56 c-23 -21 -109 -62 -124 -59 -26 5 77 61 124 67 6 1 6 -2 0 -8z m-921 -123
c-120 -237 -191 -431 -214 -583 -14 -94 -19 -110 -26 -102 -10 9 28 200 57
289 50 155 218 526 226 501 2 -6 -17 -53 -43 -105z m291 72 c3 -5 1 -10 -4
-10 -6 0 -11 5 -11 10 0 6 2 10 4 10 3 0 8 -4 11 -10z m465 -24 c0 -2 -16 -13
-35 -25 -19 -11 -34 -25 -33 -29 2 -5 -10 -24 -26 -42 -20 -23 -29 -45 -30
-69 -1 -32 2 -37 34 -47 19 -6 36 -16 38 -22 3 -11 -73 -30 -154 -38 -28 -2
-65 -9 -83 -14 -18 -5 -33 -5 -36 1 -4 5 -17 9 -30 9 -27 0 -41 15 -23 24 10
5 10 7 1 12 -23 11 107 100 224 153 29 13 54 30 57 37 3 8 11 14 18 14 7 0 24
9 38 20 24 18 40 25 40 16z m-490 -26 c-7 -14 -7 -20 0 -20 5 0 10 -4 10 -10
0 -5 -9 -10 -20 -10 -23 0 -25 12 -8 40 17 26 32 26 18 0z m664 -14 c-5 -31
-3 -36 23 -49 l28 -15 -27 -12 c-37 -17 -88 5 -88 38 0 13 -5 33 -11 44 -10
19 -9 20 13 15 13 -3 30 -2 38 3 26 16 31 11 24 -24z m-384 -26 c0 -5 -5 -10
-11 -10 -5 0 -7 5 -4 10 3 6 8 10 11 10 2 0 4 -4 4 -10z m505 -10 c3 -5 1 -10
-4 -10 -6 0 -11 5 -11 10 0 6 2 10 4 10 3 0 8 -4 11 -10z m-915 -55 c-7 -9
-15 -13 -17 -11 -7 7 7 26 19 26 6 0 6 -6 -2 -15z m870 1 c0 -2 -7 -6 -15 -10
-8 -3 -15 -1 -15 4 0 6 7 10 15 10 8 0 15 -2 15 -4z m-966 -81 c-59 -67 -64
-71 -64 -56 0 10 105 121 115 121 3 0 -20 -29 -51 -65z m326 35 c0 -5 -5 -10
-11 -10 -5 0 -7 5 -4 10 3 6 8 10 11 10 2 0 4 -4 4 -10z m592 -8 c-7 -2 -12
-11 -12 -20 0 -14 2 -15 9 -3 8 12 14 12 33 3 13 -6 16 -11 8 -10 -8 1 -26 -4
-40 -12 -14 -7 -33 -14 -43 -15 -27 -2 -32 15 -7 22 12 3 26 17 31 30 6 15 13
21 21 17 9 -6 9 -9 0 -12z m-645 2 c-3 -3 -12 -4 -19 -1 -8 3 -5 6 6 6 11 1
17 -2 13 -5z m708 -12 c-3 -3 -11 0 -18 7 -9 10 -8 11 6 5 10 -3 15 -9 12 -12z
m-25 -48 c0 -8 -4 -13 -9 -10 -5 4 -11 0 -14 -6 -2 -7 -8 -9 -13 -5 -5 5 -1
15 10 23 25 18 26 17 26 -2z m-210 -38 c0 -3 -4 -8 -10 -11 -5 -3 -10 -1 -10
4 0 6 5 11 10 11 6 0 10 -2 10 -4z m-90 -14 c0 -4 -5 -13 -11 -19 -17 -17 -1
-89 27 -122 31 -37 31 -48 -1 -27 -23 15 -26 15 -32 1 -4 -12 -8 -13 -13 -4
-5 7 -15 9 -26 4 -11 -5 -23 -7 -28 -6 -4 1 -14 -3 -22 -10 -8 -6 -20 -9 -29
-6 -8 4 -17 2 -19 -2 -11 -17 -116 13 -116 33 0 7 -17 18 -37 26 -26 9 -32 15
-20 18 10 2 17 13 17 27 0 20 7 25 38 31 20 4 42 10 47 14 9 7 23 11 105 26
14 2 41 8 60 13 47 12 60 13 60 3z m267 -128 c-3 -3 -12 -4 -19 -1 -8 3 -5 6
6 6 11 1 17 -2 13 -5z m-655 -10 c3 -3 2 -17 -3 -32 -5 -15 -22 -67 -39 -117
-44 -136 -71 -208 -85 -225 -7 -8 -16 -32 -19 -53 -4 -20 -20 -52 -35 -70 -16
-17 -29 -36 -29 -40 0 -18 -66 -96 -75 -90 -6 3 -7 1 -3 -5 3 -6 -11 -33 -31
-61 -37 -49 -38 -50 -50 -28 -12 22 -12 22 -23 -10 -7 -18 -17 -33 -23 -33 -6
0 -20 -10 -32 -23 -11 -12 -17 -18 -12 -13 14 19 7 26 -13 14 -11 -7 -20 -19
-20 -26 0 -7 -4 -11 -9 -7 -6 3 -8 15 -6 27 3 11 0 28 -5 37 -8 14 -9 14 -10
-2 0 -25 -28 -77 -41 -77 -6 0 -7 6 -2 13 13 21 12 39 -3 54 -18 18 -11 186
13 303 8 41 19 100 24 130 10 57 19 77 19 44 0 -11 5 -25 11 -31 8 -8 8 -21 1
-45 -16 -51 -34 -186 -26 -199 3 -6 6 -37 5 -70 0 -32 3 -61 9 -64 14 -9 50
55 50 88 0 15 5 27 10 27 7 0 7 6 0 19 -7 14 -6 23 3 33 7 7 14 32 16 56 1 24
9 59 17 78 8 19 11 34 7 34 -4 0 7 14 25 30 18 17 35 30 38 30 5 0 3 -18 -15
-109 -6 -29 -11 -65 -11 -80 l0 -26 15 29 c8 15 15 33 15 38 0 5 9 23 21 39
11 16 22 41 23 56 2 16 5 28 6 28 1 0 3 12 4 28 2 15 -1 27 -6 27 -4 0 -2 16
6 35 9 20 16 39 17 43 1 4 17 25 37 47 20 21 32 30 28 20 -14 -33 -13 -115 1
-115 33 0 120 152 108 190 -10 30 20 60 60 60 17 0 34 -3 37 -6z m573 -13 c-6
-5 -23 -12 -40 -16 -29 -6 -29 -6 -11 9 21 17 67 23 51 7z m-76 -37 c13 -12
-8 -10 -29 2 l-25 15 25 -7 c14 -3 27 -8 29 -10z m41 2 c0 -11 -19 -15 -25 -6
-3 5 1 10 9 10 9 0 16 -2 16 -4z m-201 -47 c-13 -10 -27 -19 -31 -19 -8 0 -28
-58 -28 -84 0 -12 16 -34 37 -52 20 -17 33 -35 30 -41 -4 -6 -40 -16 -80 -23
-39 -6 -108 -21 -152 -32 -110 -28 -129 -28 -133 0 -2 12 1 22 7 22 6 0 8 6 5
14 -3 8 -1 17 5 20 5 4 7 19 5 33 -3 15 -2 24 2 20 4 -4 14 3 22 15 12 16 13
23 3 26 -22 7 33 47 94 66 33 10 72 24 87 32 31 16 72 19 63 4 -4 -6 8 -5 27
3 47 19 65 17 37 -4z m81 -219 c0 -5 -7 -7 -15 -3 -9 3 -25 -3 -35 -12 -15
-13 -20 -14 -20 -5 0 10 -3 9 -12 -2 -7 -9 -24 -18 -37 -20 -15 -2 -31 -17
-45 -43 -11 -22 -29 -47 -39 -56 -10 -10 -13 -19 -8 -21 7 -2 5 -14 -4 -32 -9
-16 -14 -35 -11 -42 3 -7 -2 -15 -10 -18 -28 -11 -44 -6 -44 12 -1 15 -2 15
-17 -3 -13 -16 -15 -17 -10 -2 9 24 -13 22 -54 -6 -19 -13 -42 -26 -51 -30
-10 -3 -18 -11 -18 -16 0 -5 -11 -12 -24 -15 -13 -3 -58 -37 -99 -76 -58 -54
-76 -66 -81 -54 -9 24 -8 28 14 52 12 12 17 22 13 22 -4 0 -3 4 3 8 11 8 74
100 74 108 0 3 -9 2 -20 -1 -11 -4 -20 -2 -20 4 0 6 11 11 25 11 24 0 34 11
39 42 3 24 49 74 91 100 49 31 88 44 235 79 122 29 180 35 180 19z m85 0 c3
-5 -1 -10 -10 -10 -9 0 -13 5 -10 10 3 6 8 10 10 10 2 0 7 -4 10 -10z m-955
-19 c0 -5 -7 -12 -16 -15 -14 -5 -15 -4 -4 9 14 17 20 19 20 6z m-129 -67 c-9
-28 -9 -29 -10 -3 -1 14 2 29 6 32 11 12 13 2 4 -29z m961 -105 c-12 -5 -22
-11 -22 -15 0 -3 6 -4 13 -1 7 3 26 -1 42 -8 29 -13 29 -13 -25 -14 -30 -1
-80 -3 -110 -6 -45 -5 -50 -4 -30 5 13 6 27 15 31 21 3 5 19 11 35 12 17 1 32
9 36 20 7 15 11 16 30 6 l22 -12 -22 -8z m298 -4 c-7 -9 -15 -13 -17 -11 -6 6
20 36 26 30 2 -2 -2 -10 -9 -19z m-72 -20 c-11 -11 -68 -23 -68 -15 0 5 12 11
28 13 15 2 31 5 36 6 5 0 7 -1 4 -4z m-240 -41 c-4 -3 -30 -7 -59 -10 -29 -2
-62 -7 -73 -11 -22 -7 -31 -9 -57 -11 -9 -1 -27 -11 -40 -23 l-24 -20 28 5
c38 9 34 -8 -8 -33 -19 -11 -35 -24 -35 -30 0 -5 -17 -17 -37 -26 -21 -10 -50
-27 -65 -38 -15 -11 -30 -18 -34 -15 -13 14 9 46 66 92 32 27 57 53 54 58 -6
9 71 45 126 58 40 9 166 13 158 4z m-2600 -148 c10 -10 -42 -6 -58 5 -11 7 -7
9 18 5 19 -2 36 -7 40 -10z m382 -32 c145 -20 324 -61 390 -89 77 -34 45 -31
-58 5 -124 42 -406 89 -541 91 -31 0 -74 4 -96 9 -62 14 181 2 305 -16z m-366
-4 c151 -12 334 -43 351 -61 13 -15 -113 -6 -220 14 -130 25 -136 26 -225 37
-83 11 -116 20 -70 20 13 0 87 -5 164 -10z m2152 -17 c-10 -10 -19 5 -10 18 6
11 8 11 12 0 2 -7 1 -15 -2 -18z m-2478 10 c-10 -2 -26 -2 -35 0 -10 3 -2 5
17 5 19 0 27 -2 18 -5z m4 -20 c7 -6 54 -14 103 -17 129 -10 245 -27 245 -37
0 -4 -15 -6 -32 -4 -169 21 -197 23 -233 15 l-40 -9 42 2 c23 1 39 -1 37 -5
-2 -3 4 -8 13 -11 10 -2 -16 -3 -57 -1 l-75 3 92 -12 c50 -7 95 -16 100 -21 4
-4 -11 -5 -35 -1 -24 4 -117 8 -207 9 -90 1 -166 4 -170 7 -3 3 4 14 15 24 29
26 25 45 -8 45 -15 0 -32 4 -37 9 -6 5 -19 12 -30 15 -11 3 44 4 122 2 79 -2
148 -8 155 -13z m2438 2 c-7 -9 -15 -13 -17 -11 -7 7 7 26 19 26 6 0 6 -6 -2
-15z m-1764 -62 c-3 -3 -30 -10 -59 -14 -28 -4 -65 -10 -82 -14 -16 -4 -27 -4
-23 0 9 9 94 29 139 32 17 1 29 0 25 -4z m44 -7 c0 -3 -4 -8 -10 -11 -5 -3
-10 -1 -10 4 0 6 5 11 10 11 6 0 10 -2 10 -4z m456 -31 c10 -8 14 -15 8 -15
-5 0 -19 7 -30 15 -10 8 -14 15 -8 15 5 0 19 -7 30 -15z m-691 -15 c-3 -5 -11
-10 -16 -10 -6 0 -7 5 -4 10 3 6 11 10 16 10 6 0 7 -4 4 -10z m831 -27 c-7 -7
-56 17 -56 27 0 7 13 4 30 -6 16 -10 28 -19 26 -21z m1688 21 c7 -9 28 -17 47
-19 39 -3 108 -21 116 -29 16 -16 -55 -35 -130 -36 l-48 0 2 38 c2 21 -1 43
-5 50 -11 18 5 15 18 -4z m-178 -55 c-16 -23 -31 -37 -38 -33 -6 4 -8 3 -4 -4
3 -6 2 -13 -4 -17 -16 -10 -12 -38 5 -31 19 7 15 -15 -5 -31 -20 -16 -32 -16
-55 1 -19 13 -18 15 13 47 36 37 39 51 17 73 -8 8 -15 19 -15 23 0 12 104 31
108 20 2 -4 -8 -26 -22 -48z m-3197 47 c-2 -2 -24 -6 -48 -9 -29 -4 -40 -2
-30 4 13 8 88 14 78 5z m1579 -12 c93 -23 347 -143 374 -177 9 -12 25 -22 35
-22 10 0 19 -9 21 -19 4 -17 -1 -18 -44 -13 -40 5 -46 4 -31 -6 10 -7 26 -18
35 -25 16 -13 15 -13 -1 -8 -10 3 -28 0 -39 -8 -20 -14 -20 -14 3 -19 19 -3
17 -5 -8 -6 -17 0 -34 -5 -37 -10 -4 -5 -20 -7 -37 -4 -39 6 -88 -5 -71 -16
10 -6 9 -11 -3 -21 -8 -7 -15 -9 -15 -5 0 4 -6 2 -14 -4 -23 -19 -381 -18
-413 2 -6 4 -28 9 -49 13 -121 18 -274 57 -274 70 0 18 27 54 41 54 10 0 21 5
24 11 5 7 15 3 30 -11 32 -30 167 -40 211 -17 l29 16 -37 15 c-21 9 -38 20
-38 25 0 5 -8 7 -19 4 -10 -3 -22 0 -25 5 -3 6 11 13 34 17 22 4 40 11 40 16
0 6 9 5 21 -2 12 -6 33 -12 47 -14 14 -1 29 -10 34 -19 5 -9 22 -16 38 -16 17
0 30 -4 30 -8 0 -5 6 -9 13 -9 6 0 46 -3 87 -7 69 -6 73 -5 50 9 -14 8 -54 24
-90 36 -68 23 -96 39 -67 39 10 0 27 6 38 13 15 8 23 9 26 1 2 -6 15 -9 28 -6
14 2 42 -5 64 -16 31 -17 102 -42 131 -46 3 -1 11 -5 18 -9 20 -13 100 -18
107 -7 6 11 -54 52 -66 45 -4 -3 -14 6 -23 20 -19 30 -66 54 -164 85 -49 16
-77 31 -88 48 -15 23 -15 25 1 19 9 -4 29 -10 43 -13z m1012 -4 c-37 -29 -127
-73 -141 -68 -8 3 -1 17 19 38 23 23 46 36 75 41 70 11 74 10 47 -11z m-2723
-6 c-3 -3 -12 -4 -19 -1 -8 3 -5 6 6 6 11 1 17 -2 13 -5z m248 -6 c-44 -25
-40 -54 5 -44 19 3 30 1 33 -9 4 -9 -12 -20 -51 -35 -31 -13 -111 -50 -177
-82 -115 -57 -153 -68 -51 -15 63 33 109 82 101 108 -8 26 -38 24 -127 -6 -79
-27 -98 -30 -83 -16 16 16 308 110 340 110 27 0 28 -1 10 -11z m613 -30 c4
-19 -24 -26 -30 -8 -1 5 -18 10 -35 12 -18 1 -33 6 -33 11 0 4 21 7 47 5 36
-2 49 -7 51 -20z m2478 -14 c-4 -9 -9 -15 -11 -12 -3 3 -3 13 1 22 4 9 9 15
11 12 3 -3 3 -13 -1 -22z m472 -13 c1 -1 3 0 5 1 1 1 20 -8 42 -21 31 -17 41
-29 43 -51 2 -30 -32 -65 -51 -53 -6 3 -7 1 -4 -4 4 -6 -1 -14 -10 -17 -9 -4
-19 -2 -23 4 -4 6 -13 5 -26 -4 -19 -15 -19 -15 4 -38 18 -18 24 -20 31 -9 7
10 15 8 38 -13 16 -15 38 -32 48 -40 17 -12 17 -14 0 -50 -17 -35 -19 -36 -56
-31 -35 5 -39 4 -39 -15 0 -11 -4 -20 -10 -20 -5 0 -7 -7 -4 -15 4 -8 14 -15
24 -15 21 0 33 -23 18 -38 -7 -7 -3 -12 11 -17 12 -3 21 -11 21 -17 0 -5 6 -8
14 -5 17 7 27 -34 14 -56 -6 -12 -3 -14 12 -10 31 8 15 -18 -27 -45 -27 -17
-38 -20 -49 -11 -10 8 -14 8 -14 0 0 -18 -29 -13 -99 20 -136 64 -168 79 -245
113 -71 31 -82 39 -108 85 -22 38 -26 52 -16 55 39 13 41 14 16 15 -59 2 -76
27 -35 53 12 8 56 25 97 37 97 30 103 32 55 24 -22 -3 -56 -5 -75 -4 -122 8
-121 8 -114 -13 4 -12 12 -24 18 -28 6 -4 -1 -8 -16 -8 -21 0 -26 4 -21 17 4
11 3 14 -5 9 -8 -5 -12 0 -12 13 0 11 5 23 11 27 6 3 8 17 4 31 -5 20 -3 24 9
20 9 -4 24 3 36 15 21 23 74 46 125 55 l30 6 -22 -25 c-13 -13 -23 -30 -23
-37 0 -17 62 -41 104 -41 41 0 125 17 144 29 19 11 -5 57 -47 91 -23 18 -27
26 -16 30 11 4 183 5 193 1z m-682 -15 c16 -12 16 -15 4 -20 -8 -2 -39 -12
-67 -21 -29 -9 -55 -21 -58 -26 -4 -5 2 -6 11 -2 12 4 15 3 10 -6 -5 -7 -14
-10 -21 -7 -7 2 -33 -1 -58 -9 -60 -18 -131 -25 -148 -14 -10 6 -10 9 -2 9 7
0 19 13 28 29 16 32 42 43 150 65 94 18 127 19 151 2z m-374 -68 c-7 -7 -12
-8 -12 -2 0 14 12 26 19 19 2 -3 -1 -11 -7 -17z m-1812 2 c0 -5 -5 -10 -11
-10 -5 0 -7 5 -4 10 3 6 8 10 11 10 2 0 4 -4 4 -10z m1253 -85 c-3 -9 -8 -14
-10 -11 -3 3 -2 9 2 15 9 16 15 13 8 -4z m-1609 -22 c-18 -14 -25 -27 -20 -38
5 -13 9 -15 20 -6 10 8 15 5 24 -14 6 -14 16 -25 22 -25 22 0 8 -22 -22 -36
-32 -14 -88 -51 -117 -75 -8 -7 -16 -8 -20 -2 -3 5 -14 14 -24 20 -17 9 -15
13 20 47 31 30 35 38 23 46 -8 5 -21 8 -27 5 -7 -2 -13 1 -13 8 0 8 -4 6 -10
-3 -8 -12 -10 -11 -10 6 0 12 7 27 16 34 30 26 102 55 133 55 l32 0 -27 -22z
m360 15 c-5 -8 -2 -9 9 -5 19 7 22 -5 7 -34 -14 -25 7 -26 27 -1 10 12 10 8
-2 -15 -8 -18 -20 -33 -25 -33 -6 0 -10 -6 -10 -14 0 -8 -5 -18 -12 -22 -8 -5
-9 -2 -5 9 9 23 4 21 -19 -5 -10 -12 -14 -18 -7 -15 8 5 8 1 0 -17 -7 -13 -15
-22 -19 -20 -5 3 -8 2 -8 -3 0 -4 -17 -26 -38 -47 -20 -22 -49 -55 -64 -74
-16 -19 -28 -30 -28 -24 0 6 4 14 10 17 5 3 9 16 8 28 -1 12 2 36 6 53 9 39
-15 64 -44 46 -13 -8 -20 -8 -22 0 -3 8 -14 8 -39 -1 -20 -6 -46 -10 -59 -8
-26 4 -26 4 -85 -46 -22 -19 -43 -35 -47 -36 -23 -4 -37 -14 -32 -22 3 -5 -2
-9 -11 -9 -9 0 -14 -4 -11 -9 3 -5 -1 -12 -10 -15 -8 -3 -12 -2 -9 4 3 6 -2
10 -12 10 -24 0 24 40 87 72 25 12 66 37 91 55 26 18 53 33 61 33 8 0 48 23
90 50 42 28 80 50 85 50 5 0 14 5 21 12 10 10 95 45 115 47 5 1 5 -4 1 -11z
m2141 -33 c97 -25 221 -91 243 -130 31 -52 36 -74 17 -82 -10 -3 -21 0 -26 8
-5 8 -9 10 -9 5 0 -6 -7 -1 -15 10 -9 12 -14 14 -15 5 0 -8 -6 -11 -15 -7 -8
3 -22 9 -32 13 -11 4 -14 3 -9 -5 4 -7 1 -18 -6 -26 -11 -12 -17 -12 -41 1
-25 13 -31 12 -54 -2 -24 -16 -25 -16 -18 7 6 18 5 21 -6 12 -19 -14 -36 -12
-91 14 -65 31 -80 54 -21 31 15 -5 24 -6 18 -1 -5 5 -26 15 -45 21 -27 8 -38
19 -46 45 -9 30 -8 33 8 28 10 -2 16 -8 13 -12 -5 -9 36 -22 44 -14 3 3 -1 10
-9 15 -11 7 0 9 35 4 36 -4 46 -3 35 4 -12 9 -10 11 10 12 l25 1 -25 8 c-14 5
-52 20 -85 35 l-60 26 60 -5 c33 -3 87 -13 120 -21z m-3005 -25 c0 -5 -5 -10
-11 -10 -5 0 -7 5 -4 10 3 6 8 10 11 10 2 0 4 -4 4 -10z m42 -12 c-7 -7 -12
-8 -12 -2 0 14 12 26 19 19 2 -3 -1 -11 -7 -17z m243 12 c-3 -5 -15 -10 -26
-10 -11 0 -17 5 -14 10 3 6 15 10 26 10 11 0 17 -4 14 -10z m-105 -8 c0 -5
-11 -14 -25 -20 -28 -13 -44 2 -18 17 22 13 43 14 43 3z m138 -23 c-2 -17 -11
-23 -40 -26 -45 -4 -49 10 -10 31 39 22 54 20 50 -5z m667 11 c3 -5 12 -7 20
-3 12 4 14 -2 11 -31 -3 -19 -1 -38 3 -41 28 -17 -29 -137 -72 -151 -10 -3
-16 -8 -13 -11 3 -3 -5 -14 -17 -24 -12 -10 -16 -18 -9 -19 6 0 12 -5 12 -10
0 -6 -8 -10 -17 -8 -11 2 -19 -6 -23 -22 -6 -24 -6 -24 -18 9 -16 44 -59 84
-94 85 -15 1 -27 4 -25 8 5 15 110 118 120 118 6 0 7 3 4 6 -12 12 13 44 34
44 11 0 18 4 15 9 -4 5 6 19 21 30 32 23 39 25 48 11z m-775 -9 c0 -5 -7 -12
-16 -15 -14 -5 -15 -4 -4 9 14 17 20 19 20 6z m2615 -142 c12 -12 -11 -12 -36
1 -10 6 -19 8 -19 5 0 -3 45 -27 99 -54 55 -27 97 -51 94 -54 -3 -3 4 -3 14
-1 18 5 125 -21 188 -46 17 -6 64 -36 105 -66 73 -54 74 -54 25 -10 -27 25
-65 53 -82 63 -54 29 -55 56 -2 67 17 3 40 17 51 31 11 14 25 25 32 25 12 0
155 -56 231 -90 22 -10 68 -30 103 -45 60 -27 62 -29 62 -65 0 -20 5 -51 11
-69 8 -21 8 -35 1 -44 -6 -6 -12 -30 -14 -51 -2 -22 -9 -41 -16 -44 -8 -2 -10
2 -5 13 5 15 3 16 -14 6 -11 -6 -23 -17 -26 -25 -4 -9 -14 -12 -28 -9 -22 6
-22 7 -3 14 16 6 14 8 -11 9 -29 1 -41 9 -187 129 -52 43 -52 42 7 -13 33 -31
79 -71 103 -88 41 -31 56 -53 28 -42 -8 3 -17 0 -22 -7 -4 -8 -3 -10 4 -5 7 4
12 3 12 -2 0 -6 -6 -12 -14 -15 -17 -7 -26 -53 -14 -65 6 -6 6 -17 -1 -30 -12
-23 -49 -19 -59 7 -26 71 -141 194 -215 233 -22 11 -36 22 -33 25 10 11 87
-30 122 -65 18 -18 38 -31 44 -27 22 14 8 52 -34 95 -150 154 -195 179 -255
144 -24 -14 -33 -15 -44 -5 -18 14 -32 -1 -23 -24 8 -22 -14 -29 -28 -9 -12
16 -11 20 9 36 13 10 30 15 39 12 9 -3 16 -1 16 5 0 10 -22 19 -65 25 -10 2
-21 8 -23 15 -3 9 -7 9 -19 -1 -12 -10 -18 -9 -28 6 -8 10 -18 15 -24 11 -6
-3 -11 0 -11 8 0 8 -8 18 -17 21 -36 14 -164 101 -153 104 6 2 18 -2 28 -10
15 -11 15 -11 5 2 -7 9 -39 29 -73 45 -33 16 -60 32 -60 36 0 8 209 -96 225
-112z m-2685 91 c-8 -5 -17 -7 -19 -4 -3 3 1 9 9 14 8 5 17 7 19 4 3 -3 -1 -9
-9 -14z m1995 -25 c-40 -32 -123 -77 -135 -73 -5 2 8 21 28 43 25 27 50 43 82
51 25 6 47 10 50 7 2 -2 -9 -15 -25 -28z m-921 0 c-8 -20 20 -20 36 0 7 8 17
12 23 8 6 -4 3 -9 -9 -14 -13 -5 -4 -7 25 -7 24 0 46 -4 50 -8 3 -5 12 -9 19
-10 42 -3 42 -3 30 -29 -6 -14 -15 -25 -20 -25 -13 0 -109 -98 -163 -168 -55
-71 -78 -77 -83 -20 -2 20 -12 44 -22 53 -24 22 -117 25 -130 5 -5 -8 -12 -12
-15 -8 -4 3 7 19 24 34 17 15 27 30 22 34 -11 6 27 54 46 57 6 1 29 18 50 38
21 19 42 35 47 35 4 0 6 6 3 14 -4 11 1 13 24 9 17 -2 29 0 29 6 0 6 4 11 10
11 5 0 7 -7 4 -15z m1404 -54 c2 -6 9 -11 15 -11 17 -1 61 -39 54 -47 -4 -3
-13 0 -22 7 -8 7 -21 10 -30 6 -8 -3 -14 -1 -12 3 1 5 -16 25 -38 45 l-40 36
35 -14 c19 -8 36 -19 38 -25z m-2637 -4 c-10 -9 -11 -8 -5 6 3 10 9 15 12 12
3 -3 0 -11 -7 -18z m1640 10 c-16 -20 -9 -22 58 -19 48 3 61 7 62 20 1 15 2
15 6 0 3 -12 15 -18 36 -18 18 0 40 -7 51 -15 17 -13 15 -14 -20 -21 -22 -3
-43 -10 -49 -14 -5 -4 -18 -6 -27 -5 -10 2 -18 0 -18 -5 0 -7 -36 -21 -65 -25
-5 -1 -18 -5 -28 -10 -15 -6 -16 -10 -5 -16 9 -6 6 -9 -10 -9 -13 0 -20 4 -17
10 3 6 1 10 -5 10 -6 0 -13 -7 -17 -15 -3 -9 -24 -26 -47 -37 -27 -15 -36 -23
-25 -25 11 -3 15 -11 12 -24 -5 -18 -6 -18 -18 -3 -7 10 -17 14 -24 10 -9 -6
-8 -11 4 -20 15 -11 14 -13 -5 -31 -16 -14 -23 -16 -32 -7 -7 7 -25 12 -40 12
-15 0 -28 5 -28 11 0 6 -9 8 -22 3 -13 -4 -30 -6 -38 -6 -63 7 -86 1 -110 -25
-14 -16 -38 -34 -54 -41 -23 -10 -15 3 43 67 168 187 241 235 350 236 42 0 66
4 68 13 3 6 9 12 15 12 7 0 7 -5 -1 -13z m319 -1 c0 -3 -4 -8 -10 -11 -5 -3
-10 -1 -10 4 0 6 5 11 10 11 6 0 10 -2 10 -4z m1050 -45 c0 -5 -9 -7 -20 -4
-11 3 -20 7 -20 9 0 2 9 4 20 4 11 0 20 -4 20 -9z m118 -16 c-3 -3 -9 2 -12
12 -6 14 -5 15 5 6 7 -7 10 -15 7 -18z m-405 -34 c29 -16 75 -41 102 -56 28
-16 58 -35 67 -43 9 -8 22 -12 29 -10 14 5 59 -34 59 -51 0 -16 -30 -13 -36 4
-4 8 -12 15 -20 15 -7 0 -22 10 -34 22 -11 12 -20 18 -20 12 0 -5 -5 -1 -10 8
-6 9 -24 19 -40 23 -17 4 -30 11 -30 16 0 5 -4 9 -10 9 -5 0 -35 18 -66 40
-67 47 -63 52 9 11z m-2205 -74 c1 -17 -7 -33 -24 -46 -31 -25 -43 -20 -37 14
4 20 0 27 -21 35 -30 11 -33 22 -11 40 8 7 15 19 15 27 0 26 75 -42 78 -70z
m-202 48 c-11 -8 -24 -15 -29 -15 -4 0 -5 -4 -2 -10 3 -5 4 -10 1 -10 -19 0
-12 22 11 34 36 19 44 20 19 1z m1483 -25 c-12 -16 -26 -27 -31 -24 -13 8 -9
24 6 24 8 0 16 7 20 15 3 8 10 15 16 15 6 0 1 -13 -11 -30z m265 1 c-10 -10
-21 -16 -24 -14 -3 3 4 11 14 19 28 20 33 17 10 -5z m-1334 -5 c0 -2 -7 -7
-16 -10 -8 -3 -12 -2 -9 4 6 10 25 14 25 6z m1737 -90 c3 -42 1 -76 -4 -76 -5
0 -10 19 -12 41 -1 23 -2 45 -3 48 0 3 0 21 1 40 2 58 12 28 18 -53z m503 74
c0 -5 -2 -10 -4 -10 -3 0 -8 5 -11 10 -3 6 -1 10 4 10 6 0 11 -4 11 -10z
m-593 -82 c-3 -46 -3 -73 -1 -60 9 38 21 24 19 -20 -2 -24 1 -74 5 -113 5 -39
4 -71 -1 -73 -8 -3 -5 -11 19 -59 14 -27 15 -33 3 -33 -5 0 -11 9 -14 20 -6
24 -22 26 -31 4 -3 -8 -2 -12 4 -9 5 3 8 -4 7 -15 -1 -11 -5 -20 -9 -20 -4 0
-8 -14 -8 -32 0 -17 3 -28 8 -24 4 4 7 12 7 18 0 5 15 16 34 24 29 12 32 12
27 -1 -3 -8 0 -15 6 -15 9 0 9 -3 0 -12 -9 -9 -15 -9 -24 0 -19 19 -28 14 -28
-13 0 -18 -5 -25 -18 -25 -48 0 -71 -75 -48 -159 8 -30 13 -63 11 -73 -4 -21
41 -129 58 -140 24 -16 29 -7 23 40 -9 61 -8 106 4 134 7 18 9 11 9 -33 1 -85
20 -167 52 -231 16 -31 29 -73 29 -93 l0 -35 -40 21 c-22 12 -47 18 -55 15
-20 -7 -31 -4 -27 9 1 6 -4 2 -12 -8 -10 -14 -15 -15 -19 -5 -4 8 -6 7 -6 -4
-1 -10 -5 -18 -11 -18 -5 0 -21 -18 -35 -39 -15 -22 -37 -41 -50 -44 -14 -2
-22 0 -19 4 3 5 -8 9 -24 9 -16 0 -35 7 -42 15 -10 12 -16 13 -29 3 -14 -12
-15 -11 -1 6 13 16 12 20 -9 37 -13 11 -30 19 -38 19 -16 0 -16 24 3 183 5 41
3 57 -5 57 -6 0 -11 -10 -9 -23 1 -12 -2 -65 -7 -117 -5 -52 -9 -98 -9 -102
-1 -5 -4 -7 -7 -5 -4 1 -16 -6 -27 -16 -10 -10 -30 -20 -43 -23 -13 -3 -28 -6
-34 -7 -5 -2 -15 -6 -22 -10 -15 -10 -20 -1 -28 55 -5 33 -12 48 -22 48 -12 0
-14 7 -10 29 4 19 1 33 -8 41 -12 10 -15 10 -15 -1 0 -10 -3 -10 -11 -2 -15
15 -39 5 -32 -13 3 -8 0 -14 -6 -14 -6 0 -11 -7 -11 -15 0 -8 -9 -15 -20 -15
-11 0 -20 -6 -21 -12 0 -10 -2 -10 -6 0 -2 6 -13 12 -23 12 -15 0 -20 11 -26
56 -5 40 -3 58 6 64 8 5 10 18 5 39 -5 22 -2 40 10 59 15 24 14 24 -15 -5 -17
-18 -35 -33 -40 -33 -6 0 -9 -9 -7 -21 2 -22 -2 -26 -66 -53 -21 -9 -36 -12
-32 -6 3 5 -3 28 -13 50 l-19 41 61 116 c60 116 60 116 69 83 4 -18 15 -43 24
-56 8 -13 12 -24 8 -24 -4 0 -2 -7 5 -15 10 -12 15 -12 34 0 53 35 126 173
107 203 -4 6 -23 9 -46 7 l-40 -5 50 45 c28 24 62 47 77 50 16 4 31 13 36 21
12 22 103 -11 95 -33 -4 -11 -2 -14 5 -9 17 10 15 -7 -4 -30 -13 -16 -15 -16
-10 -1 3 10 0 17 -9 17 -7 0 -15 8 -17 18 -2 11 -13 -3 -31 -40 -15 -31 -27
-61 -27 -66 0 -5 -10 -17 -21 -28 -12 -10 -48 -53 -81 -94 -33 -41 -43 -57
-23 -35 89 96 185 193 185 189 0 -2 14 3 30 11 28 14 31 14 37 -1 3 -9 -2 -32
-11 -52 -14 -34 -14 -35 0 -14 9 12 20 22 24 22 5 0 20 -20 35 -45 22 -39 26
-55 23 -110 -1 -36 -6 -65 -10 -65 -5 0 -8 -11 -8 -25 0 -25 16 -36 18 -12 0
6 7 48 14 92 14 79 14 80 50 90 20 5 50 23 66 39 30 27 30 28 41 8 6 -12 12
-45 12 -74 1 -29 5 -66 9 -83 4 -16 5 15 2 70 -4 88 -1 113 22 192 31 110 46
207 44 288 -2 56 -2 57 -5 13 -2 -27 -8 -48 -13 -48 -9 0 -4 133 9 253 1 4 4
7 7 7 3 0 4 -37 1 -82z m-1687 68 c0 -3 -4 -8 -10 -11 -5 -3 -10 -1 -10 4 0 6
5 11 10 11 6 0 10 -2 10 -4z m1085 -6 c3 -5 -4 -19 -16 -31 -14 -14 -24 -18
-28 -10 -5 7 -13 4 -24 -9 -10 -12 -23 -17 -33 -13 -12 4 -15 3 -10 -5 7 -12
6 -13 -31 -17 -37 -4 -53 -14 -47 -29 3 -8 1 -17 -5 -21 -7 -3 -8 0 -5 9 8 21
-2 20 -37 -5 -40 -28 -36 -15 6 24 42 38 45 50 8 36 -37 -14 -66 -46 -59 -65
3 -8 2 -13 -3 -10 -12 8 -53 -34 -75 -77 -12 -23 -23 -34 -29 -28 -11 11 1 34
14 26 5 -3 6 0 4 8 -3 7 8 31 25 52 27 34 37 55 26 55 -3 0 -30 -34 -60 -76
-55 -75 -71 -109 -41 -84 32 27 18 3 -24 -40 -33 -34 -38 -37 -23 -14 12 17
19 34 16 37 -4 3 -2 19 4 35 9 26 8 29 -8 25 -15 -4 -18 -1 -13 17 4 15 11 20
24 17 12 -3 19 2 23 19 4 13 10 23 14 22 4 -2 25 8 47 22 22 13 45 25 51 26 6
1 33 18 59 38 26 21 54 35 61 32 7 -3 39 6 71 19 62 25 108 31 118 15z m210
-10 c-10 -11 -21 -18 -23 -15 -3 3 3 12 14 20 27 20 30 18 9 -5z m181 3 c-4
-27 -87 -113 -144 -149 -31 -20 -64 -47 -75 -60 -21 -28 -37 -31 -37 -8 0 29
50 102 114 166 56 56 69 63 104 64 30 1 39 -2 38 -13z m-1541 -44 c5 -15 9
-16 20 -6 7 6 10 16 7 21 -3 5 0 6 7 1 20 -12 -29 -58 -54 -50 -11 3 -27 8
-36 10 -19 4 -62 -22 -55 -34 3 -4 1 -21 -4 -37 l-10 -29 5 33 c3 23 1 31 -7
26 -6 -4 2 9 18 30 19 24 35 35 46 32 10 -2 21 1 25 6 4 7 1 8 -8 3 -12 -7
-12 -6 -1 7 16 20 39 14 47 -13z m1325 17 c0 -2 -7 -7 -16 -10 -8 -3 -12 -2
-9 4 6 10 25 14 25 6z m-40 -19 c0 -2 -15 -16 -32 -33 l-33 -29 29 33 c28 30
36 37 36 29z m1150 -7 c13 -8 13 -10 -2 -10 -9 0 -20 5 -23 10 -8 13 5 13 25
0z m-2570 -15 c-7 -8 -16 -15 -21 -15 -5 0 -6 7 -3 15 4 8 13 15 21 15 13 0
13 -3 3 -15z m389 -36 c-10 -20 -13 -21 -24 -6 -10 15 -13 14 -33 -6 -12 -12
-22 -16 -22 -10 0 16 40 43 55 37 7 -3 16 3 20 13 5 11 9 14 12 6 2 -7 -1 -22
-8 -34z m2206 0 c7 -10 -24 -1 -42 14 -7 5 -13 6 -13 3 0 -4 -5 -4 -10 -1 -6
4 -8 10 -5 15 6 9 61 -15 70 -31z m-2483 9 c12 -20 10 -28 -9 -28 -16 0 -16
-2 -3 -11 12 -9 11 -9 -5 -4 -11 4 -28 7 -37 7 -20 -1 -23 11 -8 38 11 21 48
19 62 -2z m1028 8 c0 -2 -8 -10 -17 -17 -16 -13 -17 -12 -4 4 13 16 21 21 21
13z m-987 -21 c-3 -9 -8 -14 -10 -11 -3 3 -2 9 2 15 9 16 15 13 8 -4z m1536
-35 c0 -10 -3 -8 -8 5 -6 14 -10 1 -15 -45 -5 -41 -4 -66 3 -68 5 -2 7 -10 4
-18 -3 -8 -2 -14 1 -14 3 0 14 18 22 41 11 25 20 36 24 29 11 -17 23 5 16 28
-4 13 -1 19 9 19 8 0 15 -7 15 -15 0 -8 6 -12 15 -9 11 5 13 0 8 -23 -3 -18
-1 -30 5 -30 15 0 7 -111 -9 -120 -6 -4 -8 -13 -5 -19 4 -6 1 -11 -8 -11 -8 0
-18 -5 -21 -10 -4 -7 3 -8 21 -4 19 5 25 4 20 -5 -4 -6 -11 -9 -16 -6 -15 10
-42 -42 -35 -66 7 -20 4 -21 -24 -17 -27 4 -31 2 -31 -19 0 -14 4 -21 10 -18
6 3 10 1 10 -5 0 -7 -8 -9 -22 -5 -17 6 -20 4 -15 -9 4 -9 2 -16 -2 -16 -5 0
-7 -9 -4 -20 3 -11 10 -17 17 -13 6 3 6 0 -1 -8 -11 -11 -18 -10 -40 7 -16 12
-34 32 -40 45 -17 33 -16 176 2 244 24 94 77 218 86 203 5 -7 8 -20 8 -28z
m320 -7 c6 -103 6 -145 -2 -150 -4 -2 -5 -12 -2 -22 12 -39 15 -130 4 -137
-15 -9 -25 9 -23 43 0 15 2 90 2 166 1 75 6 137 10 137 5 0 10 -17 11 -37z
m561 17 c0 -5 -2 -10 -4 -10 -3 0 -8 5 -11 10 -3 6 -1 10 4 10 6 0 11 -4 11
-10z m-2510 -20 c-8 -5 -17 -7 -19 -4 -3 3 1 9 9 14 8 5 17 7 19 4 3 -3 -1 -9
-9 -14z m1297 -2 c-3 -8 -6 -5 -6 6 -1 11 2 17 5 13 3 -3 4 -12 1 -19z m1408
-30 c84 -55 137 -106 127 -122 -3 -6 -7 -5 -10 2 -2 7 -9 12 -15 12 -7 0 -18
9 -25 20 -7 12 -17 18 -22 15 -6 -3 -10 1 -10 10 0 8 -8 19 -17 22 -10 4 -27
15 -38 26 -22 20 -70 48 -82 46 -4 0 -9 4 -11 10 -8 23 26 9 103 -41z m-1215
28 c0 -3 -4 -8 -10 -11 -5 -3 -10 -1 -10 4 0 6 5 11 10 11 6 0 10 -2 10 -4z
m-1285 -26 c-3 -5 -11 -10 -16 -10 -6 0 -7 5 -4 10 3 6 11 10 16 10 6 0 7 -4
4 -10z m975 -32 c-13 -13 -19 -16 -15 -8 14 25 28 41 32 36 3 -3 -5 -15 -17
-28z m-610 -2 c0 -11 -19 -15 -25 -6 -3 5 1 10 9 10 9 0 16 -2 16 -4z m-65
-61 c-24 -17 -35 -27 -57 -51 -9 -11 -23 -23 -30 -29 -113 -85 -116 -80 -12
21 41 41 82 74 90 74 9 0 12 5 8 13 -5 8 -3 8 7 -1 12 -11 11 -15 -6 -27z
m645 31 c0 -2 -8 -10 -17 -17 -16 -13 -17 -12 -4 4 13 16 21 21 21 13z m92
-48 c-5 -28 23 -40 65 -29 21 6 41 11 46 11 13 0 7 -43 -10 -62 -21 -23 -33
-23 -33 1 0 12 -9 20 -25 23 -14 3 -25 1 -25 -4 0 -6 -6 -8 -14 -5 -10 4 -12
0 -9 -14 4 -13 0 -19 -12 -19 -11 0 -15 5 -11 15 6 16 -18 16 -43 1 -9 -6 -12
-5 -7 2 3 5 2 12 -3 14 -6 1 7 22 27 45 36 42 60 51 54 21z m518 -72 c0 -8 -4
-18 -10 -21 -5 -3 -10 3 -10 14 0 12 5 21 10 21 6 0 10 -6 10 -14z m-300 0 c0
-2 -8 -10 -17 -17 -16 -13 -17 -12 -4 4 13 16 21 21 21 13z m-809 -36 c-13
-11 -28 -20 -35 -20 -6 0 3 9 19 20 38 25 47 25 16 0z m1127 -65 c-3 -3 -9 2
-12 12 -6 14 -5 15 5 6 7 -7 10 -15 7 -18z m-685 -15 c9 -11 23 -20 31 -20 17
0 28 -51 14 -65 -8 -7 -9 -5 -4 5 4 8 -3 2 -16 -15 -71 -92 -102 -109 -79 -44
6 18 11 45 11 60 0 18 5 29 14 29 15 0 16 36 2 58 -12 20 8 13 27 -8z m847
-30 c-7 -4 -9 -16 -5 -29 4 -14 2 -21 -7 -21 -10 0 -13 10 -10 34 3 26 8 33
19 29 11 -4 11 -8 3 -13z m-192 -10 c-14 -22 -24 -19 -15 5 4 8 11 15 17 15 6
0 6 -7 -2 -20z m154 -12 c-7 -7 -10 -5 -7 8 5 29 6 30 12 16 3 -8 1 -18 -5
-24z m65 -30 c-3 -8 -6 -5 -6 6 -1 11 2 17 5 13 3 -3 4 -12 1 -19z m-42 -105
c-4 -10 -7 -22 -7 -28 5 -75 12 -127 18 -137 10 -16 12 -98 2 -92 -15 9 -29
84 -33 179 -3 80 -1 95 12 95 11 0 13 -5 8 -17z m-118 -455 c-3 -8 -6 -5 -6 6
-1 11 2 17 5 13 3 -3 4 -12 1 -19z m180 -14 c-3 -3 -12 -4 -19 -1 -8 3 -5 6 6
6 11 1 17 -2 13 -5z"/>
<path d="M3573 2250 c1 -21 10 -18 13 5 1 8 -2 15 -6 15 -5 0 -8 -9 -7 -20z"/>
<path d="M3489 2231 c-19 -16 -20 -20 -8 -21 17 0 45 27 37 35 -3 3 -16 -3
-29 -14z"/>
<path d="M1453 2143 c9 -2 25 -2 35 0 9 3 1 5 -18 5 -19 0 -27 -2 -17 -5z"/>
<path d="M2855 1750 c-3 -5 1 -10 9 -10 9 0 16 5 16 10 0 6 -4 10 -9 10 -6 0
-13 -4 -16 -10z"/>
<path d="M4625 1810 c-16 -7 -17 -9 -3 -9 9 -1 20 4 23 9 7 11 7 11 -20 0z"/>
<path d="M4528 1793 c6 -2 18 -2 25 0 6 3 1 5 -13 5 -14 0 -19 -2 -12 -5z"/>
<path d="M4443 1783 c9 -2 23 -2 30 0 6 3 -1 5 -18 5 -16 0 -22 -2 -12 -5z"/>
<path d="M4445 1736 c-22 -19 -24 -26 -16 -47 5 -14 21 -34 36 -43 19 -13 24
-21 16 -26 -20 -12 78 -21 101 -9 11 6 22 8 25 5 9 -9 43 35 43 55 0 9 -6 20
-12 23 -10 5 -10 7 0 12 15 7 16 34 1 34 -5 0 -7 -4 -4 -10 8 -13 -9 -13 -56
1 -21 7 -36 15 -34 19 3 4 -13 8 -34 8 -27 1 -48 -6 -66 -22z"/>
<path d="M4428 1623 c7 -3 16 -2 19 1 4 3 -2 6 -13 5 -11 0 -14 -3 -6 -6z"/>
<path d="M4439 1593 c-30 -5 -43 -34 -25 -56 34 -41 158 -103 216 -109 27 -2
35 1 38 15 8 40 -9 67 -62 101 -47 30 -120 59 -136 54 -3 0 -17 -3 -31 -5z"/>
<path d="M1505 1620 c-3 -5 -1 -10 4 -10 6 0 11 5 11 10 0 6 -2 10 -4 10 -3 0
-8 -4 -11 -10z"/>
<path d="M3862 1645 c3 -3 15 -8 27 -10 13 -2 32 -7 44 -10 19 -5 19 -4 -3 9
-23 14 -80 23 -68 11z"/>
<path d="M3968 1613 c7 -3 16 -2 19 1 4 3 -2 6 -13 5 -11 0 -14 -3 -6 -6z"/>
<path d="M4030 1596 c0 -9 30 -14 35 -6 4 6 -3 10 -14 10 -12 0 -21 -2 -21 -4z"/>
<path d="M4321 1389 c-11 -19 -7 -26 38 -74 28 -30 51 -59 51 -65 0 -17 63
-50 97 -50 19 0 37 7 45 18 7 9 22 22 33 28 11 6 21 19 23 28 4 18 -71 100
-81 90 -4 -4 -14 3 -24 14 -14 17 -33 22 -93 26 -68 4 -77 3 -89 -15z"/>
<path d="M2809 685 c-23 -13 -37 -34 -44 -70 -10 -53 -29 -104 -36 -99 -5 3
-9 0 -9 -5 0 -15 27 -14 34 2 4 6 4 2 2 -10 -3 -15 2 -23 18 -27 36 -10 44 -7
71 21 14 15 25 23 25 18 1 -6 7 5 16 24 8 19 12 43 8 54 -5 15 -3 18 7 12 11
-6 12 -5 2 6 -7 7 -13 20 -13 29 0 15 -39 61 -51 60 -2 -1 -16 -7 -30 -15z"/>
<path d="M2936 603 c-48 -73 -43 -227 7 -250 13 -6 28 -8 33 -5 21 15 36 72
41 154 5 71 3 92 -11 113 -23 35 -41 31 -70 -12z"/>
<path d="M3122 544 c-28 -64 -31 -78 -20 -91 10 -13 11 -17 0 -21 -15 -5 -7
-66 14 -99 16 -26 46 -30 63 -9 7 8 20 12 30 9 27 -7 61 42 61 88 0 22 -4 39
-10 39 -6 0 -9 3 -8 8 1 4 -3 16 -9 27 -5 11 -16 44 -23 73 -11 47 -15 52 -39
52 -24 0 -30 -8 -59 -76z"/>
<path d="M2723 565 c-3 -9 -3 -18 -1 -21 3 -3 8 4 11 16 6 23 -1 27 -10 5z"/>
<path d="M3272 555 c0 -16 2 -22 5 -12 2 9 2 23 0 30 -3 6 -5 -1 -5 -18z"/>
<path d="M3292 430 c0 -14 2 -19 5 -12 2 6 2 18 0 25 -3 6 -5 1 -5 -13z"/>
<path d="M3303 365 c0 -22 2 -30 4 -17 2 12 2 30 0 40 -3 9 -5 -1 -4 -23z"/>
<path d="M1513 1293 c-18 -6 -16 -23 1 -23 17 0 30 16 19 23 -5 2 -14 2 -20 0z"/>
<path d="M3190 1159 c0 -2 -7 -25 -15 -51 -8 -27 -11 -48 -7 -48 10 0 36 89
28 97 -3 4 -6 4 -6 2z"/>
<path d="M3152 993 c4 -17 -14 -53 -24 -47 -7 4 -8 2 -4 -4 10 -17 14 -15 31
17 10 20 11 32 5 36 -6 4 -9 3 -8 -2z"/>
<path d="M930 3854 c-112 -30 -177 -99 -187 -198 -5 -48 -2 -63 23 -111 34
-68 77 -109 175 -165 41 -24 98 -57 128 -74 29 -17 64 -44 77 -59 77 -91 -44
-173 -173 -117 -68 29 -123 88 -148 158 -17 47 -25 58 -46 60 -24 3 -25 -1
-41 -90 l-16 -93 39 -36 c76 -71 264 -110 384 -79 154 40 224 111 225 226 0
105 -40 153 -205 240 -60 33 -131 80 -157 105 -44 41 -48 49 -48 92 0 61 24
87 80 87 48 0 97 -19 135 -51 30 -27 82 -101 96 -136 6 -17 16 -23 39 -23 l30
0 0 79 0 79 -46 41 c-83 73 -234 100 -364 65z"/>
<path d="M1380 3825 c0 -29 4 -35 21 -35 44 0 87 -69 250 -400 l164 -330 35 0
c33 0 38 4 63 53 14 28 55 106 90 172 88 167 187 354 205 390 21 43 93 115
114 115 14 0 18 8 18 35 l0 35 -170 0 -170 0 0 -34 c0 -32 2 -34 41 -39 50 -7
82 -36 82 -74 0 -15 -42 -113 -93 -216 l-94 -188 -108 213 c-59 117 -108 220
-109 228 -3 31 2 40 21 40 16 0 20 7 20 35 l0 35 -190 0 -190 0 0 -35z"/>
<path d="M3113 2490 c4 -30 15 -82 27 -115 21 -65 21 -58 -4 87 -14 83 -31
103 -23 28z"/>
<path d="M3160 2301 c0 -6 4 -13 10 -16 6 -3 7 1 4 9 -7 18 -14 21 -14 7z"/>
<path d="M2705 2280 c9 -15 86 -62 91 -57 6 5 -76 67 -89 67 -4 0 -5 -5 -2
-10z"/>
<path d="M3211 2114 c0 -11 3 -14 6 -6 3 7 2 16 -1 19 -3 4 -6 -2 -5 -13z"/>
<path d="M2965 2080 c21 -22 41 -40 44 -40 3 0 -13 18 -34 40 -21 22 -41 40
-44 40 -3 0 13 -18 34 -40z"/>
</g>
</svg>
